<?xml version="1.0" encoding="iso-8859-1"?>
<!-- Generator: Adobe Illustrator 24.3.0, SVG Export Plug-In . SVG Version: 6.00 Build 0)  -->
<svg version="1.1" id="Layer_1" xmlns="http://www.w3.org/2000/svg" xmlns:xlink="http://www.w3.org/1999/xlink" x="0px" y="0px"
	 viewBox="0 0 500 500" style="enable-background:new 0 0 500 500;" xml:space="preserve">
<g id="watermark_1_">
	<g>
		<g id="watermark" style="opacity:0.61;">
			<g>
				<g>
					<g>
						<g>
							<polygon style="fill:#FFFFFF;" points="213.765,461.172 208.204,474.017 205.268,474.017 199.726,461.172 202.938,461.172 
								206.846,470.347 210.81,461.172 							"/>
						</g>
						<g>
							<path style="fill:#FFFFFF;" d="M223.507,469.741h-7.469c0.275,1.23,1.321,1.982,2.826,1.982c1.046,0,1.798-0.312,2.477-0.954
								l1.523,1.651c-0.917,1.046-2.294,1.597-4.074,1.597c-3.413,0-5.634-2.147-5.634-5.083c0-2.954,2.257-5.083,5.267-5.083
								c2.899,0,5.138,1.945,5.138,5.12C223.562,469.191,223.526,469.503,223.507,469.741 M216.002,468.071h4.863
								c-0.202-1.248-1.138-2.055-2.422-2.055C217.139,466.016,216.204,466.805,216.002,468.071"/>
						</g>
						<g>
							<path style="fill:#FFFFFF;" d="M224.735,468.934c0-2.973,2.294-5.083,5.505-5.083c2.074,0,3.707,0.899,4.423,2.514
								l-2.22,1.193c-0.532-0.936-1.321-1.358-2.221-1.358c-1.45,0-2.587,1.009-2.587,2.734c0,1.725,1.138,2.734,2.587,2.734
								c0.899,0,1.688-0.404,2.221-1.358l2.22,1.211c-0.716,1.578-2.349,2.495-4.423,2.495
								C227.029,474.017,224.735,471.907,224.735,468.934"/>
						</g>
						<g>
							<path style="fill:#FFFFFF;" d="M242.828,473.393c-0.587,0.422-1.45,0.624-2.331,0.624c-2.33,0-3.688-1.193-3.688-3.542
								v-4.055h-1.523v-2.202h1.523v-2.404h2.863v2.404h2.459v2.202h-2.459v4.019c0,0.844,0.458,1.303,1.229,1.303
								c0.422,0,0.844-0.128,1.156-0.367L242.828,473.393z"/>
						</g>
					</g>
					<g>
						<path style="fill:#FFFFFF;" d="M262.474,463.997v2.643c-0.238-0.018-0.422-0.037-0.642-0.037
							c-1.578,0-2.624,0.862-2.624,2.753v4.661h-2.863v-9.873h2.734v1.303C259.776,464.493,260.951,463.997,262.474,463.997"/>
					</g>
					<g>
						<path style="fill:#FFFFFF;" d="M263.299,472.53l1.009-2.239c1.083,0.789,2.697,1.339,4.239,1.339
							c1.762,0,2.477-0.587,2.477-1.376c0-2.404-7.469-0.752-7.469-5.524c0-2.184,1.762-4,5.413-4c1.615,0,3.267,0.385,4.459,1.138
							l-0.918,2.257c-1.193-0.679-2.422-1.009-3.56-1.009c-1.761,0-2.44,0.66-2.44,1.468c0,2.367,7.468,0.734,7.468,5.45
							c0,2.147-1.78,3.982-5.45,3.982C266.492,474.017,264.437,473.411,263.299,472.53"/>
					</g>
					<g>
						<path style="fill:#FFFFFF;" d="M285.428,469.741h-7.469c0.275,1.23,1.321,1.982,2.826,1.982c1.046,0,1.798-0.312,2.477-0.954
							l1.523,1.651c-0.918,1.046-2.294,1.597-4.074,1.597c-3.413,0-5.634-2.147-5.634-5.083c0-2.954,2.257-5.083,5.267-5.083
							c2.9,0,5.138,1.945,5.138,5.12C285.484,469.191,285.447,469.503,285.428,469.741 M277.923,468.071h4.863
							c-0.202-1.248-1.138-2.055-2.422-2.055C279.061,466.016,278.125,466.805,277.923,468.071"/>
					</g>
					<g>
						<path style="fill:#FFFFFF;" d="M297.007,469.741h-7.469c0.275,1.23,1.321,1.982,2.826,1.982c1.046,0,1.798-0.312,2.477-0.954
							l1.523,1.651c-0.918,1.046-2.294,1.597-4.074,1.597c-3.413,0-5.634-2.147-5.634-5.083c0-2.954,2.257-5.083,5.267-5.083
							c2.899,0,5.138,1.945,5.138,5.12C297.062,469.191,297.025,469.503,297.007,469.741 M289.501,468.071h4.863
							c-0.202-1.248-1.138-2.055-2.422-2.055C290.639,466.016,289.703,466.805,289.501,468.071"/>
					</g>
					<g>
						<polygon style="fill:#FFFFFF;" points="303.208,470.145 301.831,471.503 301.831,474.017 298.969,474.017 298.969,460.401 
							301.831,460.401 301.831,468.108 306.016,464.144 309.429,464.144 305.318,468.328 309.796,474.017 306.327,474.017 						"/>
					</g>
					<g>
						<path style="fill:#FFFFFF;" d="M256.601,475.359L256.601,475.359l-2.86-2.86c-0.435,0.508-0.953,0.943-1.534,1.284
							c-0.092,0.069-0.186,0.136-0.283,0.199l3.027,3.027c0.456,0.456,1.195,0.456,1.65,0
							C257.057,476.554,257.057,475.815,256.601,475.359"/>
					</g>
					<g>
						<path style="fill:#FFFFFF;" d="M249.984,463.244c0.221-0.173,0.495-0.281,0.797-0.281c0.042,0,0.083,0.002,0.124,0.006
							c-0.214-0.156-0.478-0.249-0.764-0.249c-0.395,0-0.744,0.18-0.981,0.458c-0.051,0-0.1,0.006-0.151,0.008
							c0.039-0.077,0.064-0.162,0.064-0.255c0-0.234-0.143-0.434-0.346-0.519c0.087,0.126,0.138,0.279,0.138,0.445
							c0,0.122-0.031,0.237-0.081,0.341c-2.811,0.201-5.03,2.539-5.03,5.4c0,2.993,2.426,5.42,5.42,5.42
							c2.993,0,5.42-2.426,5.42-5.42C254.595,465.879,252.593,463.635,249.984,463.244 M247.983,464.656
							c0.435,0,0.844,0.112,1.199,0.309c0.374-0.245,0.82-0.387,1.299-0.387c0.711,0,1.348,0.312,1.784,0.806
							c-0.435-0.379-1.004-0.61-1.627-0.61c-0.449,0-0.87,0.12-1.234,0.329c-0.079,0.046-0.156,0.096-0.229,0.15
							c-0.065-0.048-0.133-0.093-0.204-0.134c-0.369-0.219-0.8-0.344-1.26-0.344c-0.3,0-0.588,0.054-0.854,0.152
							C247.196,464.754,247.578,464.656,247.983,464.656 M251.772,469.098c0.115,0.305,0.181,0.634,0.181,0.979
							c0,1.534-1.244,2.777-2.778,2.777c-1.534,0-2.777-1.243-2.777-2.777c0-0.345,0.066-0.674,0.181-0.979
							c-0.62-0.382-1.035-1.064-1.035-1.846c0-1.197,0.971-2.168,2.168-2.168c0.565,0,1.078,0.218,1.463,0.572
							c0.386-0.354,0.899-0.572,1.464-0.572c1.197,0,2.168,0.971,2.168,2.168C252.807,468.034,252.392,468.716,251.772,469.098"/>
					</g>
					<g>
						<path style="fill:#FFFFFF;" d="M251.666,467.061c0,0.497-0.404,0.901-0.901,0.901c-0.497,0-0.901-0.404-0.901-0.901
							s0.404-0.901,0.901-0.901c0.101,0,0.197,0.017,0.287,0.047c-0.03,0.062-0.045,0.132-0.045,0.204
							c0,0.273,0.221,0.494,0.494,0.494c0.05,0,0.099-0.008,0.146-0.022C251.66,466.941,251.666,467,251.666,467.061"/>
					</g>
					<g>
						<path style="fill:#FFFFFF;" d="M248.255,467.061c0,0.376-0.305,0.681-0.681,0.681c-0.376,0-0.681-0.305-0.681-0.681
							s0.305-0.681,0.681-0.681c0.076,0,0.149,0.013,0.217,0.035c-0.023,0.047-0.034,0.1-0.034,0.155
							c0,0.206,0.167,0.374,0.374,0.374c0.038,0,0.075-0.006,0.11-0.017C248.25,466.97,248.255,467.015,248.255,467.061"/>
					</g>
					<g>
						<g>
							<g>
								<rect x="242.908" y="467.83" style="fill:#FFFFFF;" width="0.616" height="0.616"/>
							</g>
							<g>
								<rect x="254.827" y="467.83" style="fill:#FFFFFF;" width="0.616" height="0.616"/>
							</g>
							<g>
								<path style="fill:#FFFFFF;" d="M255.205,468.082h-0.14c0-3.248-2.642-5.89-5.89-5.89c-3.248,0-5.89,2.642-5.89,5.89h-0.14
									c0-1.611,0.627-3.125,1.766-4.264c1.139-1.139,2.653-1.766,4.264-1.766c1.611,0,3.125,0.627,4.264,1.766
									C254.578,464.957,255.205,466.471,255.205,468.082"/>
							</g>
						</g>
						<g>
							<rect x="248.868" y="461.814" style="fill:#FFFFFF;" width="0.616" height="0.616"/>
						</g>
						<g>
							<rect x="244.95" y="462.052" style="fill:#FFFFFF;" width="8.45" height="0.14"/>
						</g>
						<g>
							<path style="fill:#FFFFFF;" d="M245.174,462.15c0,0.108-0.088,0.196-0.196,0.196c-0.108,0-0.196-0.088-0.196-0.196
								c0-0.108,0.088-0.196,0.196-0.196C245.086,461.954,245.174,462.042,245.174,462.15"/>
						</g>
						<g>
							<path style="fill:#FFFFFF;" d="M253.596,462.15c0,0.108-0.088,0.196-0.196,0.196c-0.108,0-0.196-0.088-0.196-0.196
								c0-0.108,0.088-0.196,0.196-0.196C253.509,461.954,253.596,462.042,253.596,462.15"/>
						</g>
					</g>
				</g>
				<g>
					<path style="fill:#FFFFFF;" d="M314.356,473.409c0,1.559-2.364,1.559-2.364,0C311.993,471.851,314.356,471.851,314.356,473.409
						z"/>
				</g>
				<g>
					<g>
						<g>
							<path style="fill:#FFFFFF;" d="M161.739,466.549l1.772,6.088l1.855-6.088h2.215l-2.823,8.14h-2.33l-0.837-2.396l-0.722-2.708
								l-0.722,2.708l-0.837,2.396h-2.33l-2.839-8.14h2.231l1.855,6.088l1.756-6.088H161.739z"/>
						</g>
						<g>
							<path style="fill:#FFFFFF;" d="M176.713,466.549l1.772,6.088l1.855-6.088h2.215l-2.823,8.14h-2.33l-0.837-2.396l-0.722-2.708
								l-0.722,2.708l-0.837,2.396h-2.33l-2.839-8.14h2.231l1.855,6.088l1.756-6.088H176.713z"/>
						</g>
						<g>
							<path style="fill:#FFFFFF;" d="M191.687,466.549l1.772,6.088l1.855-6.088h2.215l-2.823,8.14h-2.33l-0.837-2.396l-0.722-2.708
								l-0.722,2.708l-0.837,2.396h-2.33l-2.839-8.14h2.231l1.855,6.088l1.756-6.088H191.687z"/>
						</g>
					</g>
					<g>
						<path style="fill:#FFFFFF;" d="M200.908,473.52c0,1.559-2.364,1.559-2.364,0C198.545,471.962,200.908,471.962,200.908,473.52z
							"/>
					</g>
					<g>
						<path style="fill:#FFFFFF;" d="M322.71,473.409c-0.935,0.919-1.919,1.28-3.117,1.28c-2.346,0-4.3-1.411-4.3-4.282
							s1.953-4.284,4.3-4.284c1.149,0,2.035,0.329,2.921,1.199l-1.264,1.329c-0.476-0.428-1.066-0.64-1.623-0.64
							c-1.346,0-2.33,0.985-2.33,2.396c0,1.542,1.05,2.362,2.297,2.362c0.64,0,1.28-0.18,1.772-0.672L322.71,473.409z"/>
					</g>
					<g>
						<path style="fill:#FFFFFF;" d="M331.805,470.472c0,2.33-1.591,4.217-4.217,4.217c-2.626,0-4.201-1.887-4.201-4.217
							c0-2.314,1.609-4.217,4.185-4.217C330.149,466.255,331.805,468.158,331.805,470.472z M325.389,470.472
							c0,1.231,0.739,2.38,2.199,2.38c1.46,0,2.199-1.149,2.199-2.38c0-1.215-0.854-2.396-2.199-2.396
							C326.144,468.077,325.389,469.258,325.389,470.472z"/>
					</g>
					<g>
						<path style="fill:#FFFFFF;" d="M338.572,474.689v-4.332c0-1.068-0.559-2.035-1.658-2.035c-1.082,0-1.722,0.967-1.722,2.035
							v4.332h-2.003v-8.107h1.855l0.148,0.985c0.426-0.82,1.362-1.116,2.133-1.116c0.969,0,1.937,0.394,2.396,1.51
							c0.723-1.149,1.658-1.478,2.708-1.478c2.297,0,3.43,1.412,3.43,3.84v4.365h-2.003v-4.365c0-1.066-0.442-1.97-1.526-1.97
							c-1.082,0-1.756,0.935-1.756,2.003v4.332H338.572z"/>
					</g>
				</g>
			</g>
		</g>
		<g style="opacity:0.61;">
			<g>
				<g>
					<path style="fill:#FFFFFF;" d="M345.988,431.299c-0.006-1.224-0.959-2.121-2.189-2.14c-0.924-0.014-0.832,0.12-0.834-0.867
						c-0.003-1.097-0.007-2.194,0.003-3.292c0.003-0.379-0.112-0.691-0.362-0.976c-2.342-2.668-4.678-5.342-7.019-8.011
						c-0.12-0.137-0.275-0.244-0.414-0.366c-6.214,0-12.427,0-18.641,0c-0.794,0.293-1.14,0.868-1.138,1.709
						c0.01,3.748,0.004,7.496,0.004,11.243c0,0.556-0.003,0.589-0.55,0.551c-1.497-0.102-2.516,0.986-2.497,2.492
						c0.044,3.476,0.013,6.953,0.014,10.429c0.001,1.58,0.867,2.443,2.45,2.449c0.582,0.002,0.582,0.002,0.582,0.6
						c0,2.219-0.001,4.438,0.001,6.657c0.001,1.192,0.58,1.771,1.768,1.771c8.013,0.001,16.027,0.001,24.04,0
						c1.168,0,1.755-0.583,1.757-1.745c0.002-2.256,0-4.512,0.001-6.768c0-0.512,0.002-0.511,0.52-0.515
						c0.271-0.002,0.541,0.008,0.809-0.058c0.996-0.246,1.69-1.044,1.694-2.069C346.003,438.696,346.005,434.997,345.988,431.299z
						 M317.537,417.162c5.337,0,10.674,0,16.01,0c0.548,0,0.554,0.007,0.554,0.561c0.001,2.243-0.001,4.486,0.001,6.73
						c0.001,0.811,0.249,1.059,1.06,1.059c1.91,0.001,3.821,0,5.731,0.001c0.458,0,0.479,0.021,0.481,0.483
						c0.003,0.887,0.002,1.775,0,2.662c-0.001,0.477-0.024,0.498-0.504,0.499c-3.895,0.001-7.79,0-11.684,0
						c-3.882,0-7.765,0-11.647,0c-0.55,0-0.552-0.001-0.552-0.561c-0.001-3.624-0.001-7.247,0-10.871
						C316.987,417.166,316.991,417.162,317.537,417.162z M340.822,451.579c-3.883,0.001-7.766,0-11.65,0c-3.871,0-7.742,0-11.613,0
						c-0.572,0-0.574-0.002-0.574-0.579c-0.001-1.997-0.001-3.994,0.001-5.991c0-0.464,0.023-0.486,0.478-0.487
						c7.803-0.001,15.607-0.001,23.41,0c0.478,0,0.499,0.02,0.499,0.503c0.002,1.997,0.001,3.994,0,5.991
						C341.375,451.574,341.37,451.579,340.822,451.579z"/>
				</g>
				<g>
					<g>
						<rect x="327.418" y="417.053" style="fill:#FFFFFF;" width="1.757" height="1.054"/>
					</g>
					<g>
						<rect x="325.662" y="418.107" style="fill:#FFFFFF;" width="1.757" height="1.054"/>
					</g>
					<g>
						<rect x="327.418" y="419.161" style="fill:#FFFFFF;" width="1.757" height="1.054"/>
					</g>
					<g>
						<rect x="325.662" y="420.215" style="fill:#FFFFFF;" width="1.757" height="1.054"/>
					</g>
					<g>
						<rect x="327.418" y="421.269" style="fill:#FFFFFF;" width="1.757" height="1.054"/>
					</g>
					<g>
						<rect x="325.662" y="422.323" style="fill:#FFFFFF;" width="1.757" height="1.054"/>
					</g>
					<g>
						<rect x="327.418" y="423.378" style="fill:#FFFFFF;" width="1.757" height="1.054"/>
					</g>
					<g>
						<rect x="325.662" y="424.432" style="fill:#FFFFFF;" width="1.757" height="1.054"/>
					</g>
					<g>
						<rect x="327.418" y="425.486" style="fill:#FFFFFF;" width="1.757" height="1.054"/>
					</g>
					<g>
						<rect x="325.662" y="426.54" style="fill:#FFFFFF;" width="1.757" height="1.054"/>
					</g>
					<g>
						<rect x="327.418" y="427.594" style="fill:#FFFFFF;" width="1.757" height="1.054"/>
					</g>
					<g>
						<rect x="325.662" y="428.648" style="fill:#FFFFFF;" width="1.757" height="1.054"/>
					</g>
				</g>
			</g>
			<g>
				<path style="fill:#FFFFFF;" d="M187.637,431.299c-0.006-1.224-0.959-2.121-2.189-2.14c-0.924-0.014-0.832,0.12-0.834-0.867
					c-0.003-1.097-0.007-2.194,0.003-3.292c0.003-0.379-0.112-0.691-0.362-0.976c-2.342-2.668-4.678-5.342-7.019-8.011
					c-0.12-0.137-0.275-0.244-0.414-0.366c-6.214,0-12.427,0-18.641,0c-0.794,0.293-1.14,0.868-1.138,1.709
					c0.01,3.748,0.004,7.496,0.004,11.243c0,0.556-0.003,0.589-0.55,0.551c-1.497-0.102-2.516,0.986-2.497,2.492
					c0.044,3.476,0.013,6.953,0.014,10.429c0.001,1.58,0.867,2.443,2.45,2.449c0.582,0.002,0.582,0.002,0.582,0.6
					c0,2.219-0.001,4.438,0.001,6.657c0.001,1.192,0.58,1.771,1.768,1.771c8.013,0.001,16.027,0.001,24.04,0
					c1.168,0,1.755-0.583,1.757-1.745c0.002-2.256,0-4.512,0.001-6.768c0-0.512,0.002-0.511,0.52-0.515
					c0.271-0.002,0.541,0.008,0.809-0.058c0.996-0.246,1.69-1.044,1.694-2.069C187.652,438.696,187.655,434.997,187.637,431.299z
					 M159.187,417.162c5.337,0,10.674,0,16.01,0c0.548,0,0.554,0.007,0.554,0.561c0.001,2.243-0.001,4.486,0.001,6.73
					c0.001,0.811,0.249,1.059,1.06,1.059c1.91,0.001,3.821,0,5.731,0.001c0.458,0,0.479,0.021,0.481,0.483
					c0.003,0.887,0.002,1.775,0,2.662c-0.001,0.477-0.024,0.498-0.504,0.499c-3.895,0.001-7.79,0-11.684,0
					c-3.882,0-7.765,0-11.647,0c-0.55,0-0.552-0.001-0.552-0.561c-0.001-3.624-0.001-7.247,0-10.871
					C158.636,417.166,158.64,417.162,159.187,417.162z M182.472,451.579c-3.883,0.001-7.766,0-11.65,0c-3.871,0-7.742,0-11.613,0
					c-0.572,0-0.574-0.002-0.574-0.579c-0.001-1.997-0.001-3.994,0.001-5.991c0-0.464,0.023-0.486,0.478-0.487
					c7.803-0.001,15.607-0.001,23.41,0c0.478,0,0.499,0.02,0.499,0.503c0.002,1.997,0.001,3.994,0,5.991
					C183.024,451.574,183.019,451.579,182.472,451.579z"/>
			</g>
			<g>
				<path style="fill:#FFFFFF;" d="M159.779,440.669v-7.897h2.779c0.375,0,0.726,0.061,1.053,0.182
					c0.327,0.121,0.612,0.292,0.855,0.513c0.242,0.221,0.434,0.483,0.573,0.789c0.14,0.305,0.21,0.642,0.21,1.009
					c0,0.375-0.07,0.715-0.21,1.02c-0.14,0.305-0.331,0.568-0.573,0.789c-0.243,0.221-0.528,0.392-0.855,0.513
					c-0.327,0.121-0.678,0.182-1.053,0.182h-1.29v2.901H159.779z M162.58,436.356c0.39,0,0.684-0.111,0.882-0.331
					c0.199-0.22,0.298-0.474,0.298-0.761c0-0.14-0.024-0.276-0.072-0.408c-0.048-0.132-0.121-0.248-0.221-0.347
					c-0.099-0.099-0.223-0.178-0.37-0.237c-0.147-0.059-0.32-0.089-0.518-0.089h-1.312v2.173H162.58z"/>
				<path style="fill:#FFFFFF;" d="M166.308,432.771h1.731l3.177,5.294h0.088l-0.088-1.522v-3.772h1.478v7.897h-1.566l-3.353-5.592
					h-0.088l0.088,1.522v4.07h-1.467V432.771z"/>
				<path style="fill:#FFFFFF;" d="M177.922,436.334h3.872c0.022,0.089,0.04,0.195,0.055,0.32c0.014,0.125,0.022,0.25,0.022,0.375
					c0,0.507-0.077,0.985-0.231,1.434c-0.154,0.449-0.397,0.849-0.728,1.202c-0.353,0.375-0.776,0.666-1.268,0.871
					c-0.493,0.206-1.055,0.309-1.688,0.309c-0.574,0-1.114-0.103-1.622-0.309c-0.507-0.206-0.948-0.492-1.323-0.86
					c-0.375-0.367-0.673-0.803-0.894-1.307c-0.221-0.504-0.331-1.053-0.331-1.649c0-0.595,0.11-1.145,0.331-1.649
					c0.221-0.504,0.518-0.939,0.894-1.307c0.375-0.367,0.816-0.654,1.323-0.86c0.507-0.206,1.048-0.309,1.622-0.309
					c0.64,0,1.211,0.11,1.715,0.331c0.504,0.221,0.935,0.526,1.296,0.915l-1.025,1.004c-0.258-0.272-0.544-0.48-0.861-0.623
					c-0.316-0.143-0.695-0.215-1.136-0.215c-0.361,0-0.703,0.065-1.026,0.193c-0.324,0.129-0.607,0.311-0.85,0.546
					c-0.242,0.235-0.436,0.52-0.579,0.855c-0.143,0.335-0.215,0.708-0.215,1.119c0,0.412,0.072,0.785,0.215,1.12
					c0.143,0.335,0.338,0.62,0.584,0.855c0.246,0.235,0.531,0.418,0.855,0.546c0.323,0.129,0.669,0.193,1.037,0.193
					c0.419,0,0.773-0.061,1.064-0.182c0.29-0.121,0.538-0.278,0.744-0.469c0.148-0.132,0.275-0.3,0.381-0.502
					c0.106-0.202,0.189-0.428,0.248-0.678h-2.482V436.334z"/>
			</g>
			<g>
				<path style="fill:#FFFFFF;" d="M224.019,431.299c-0.006-1.224-0.959-2.121-2.189-2.14c-0.924-0.014-0.832,0.12-0.834-0.867
					c-0.003-1.097-0.007-2.194,0.003-3.292c0.003-0.379-0.112-0.691-0.362-0.976c-2.342-2.668-4.678-5.342-7.019-8.011
					c-0.12-0.137-0.275-0.244-0.414-0.366c-6.214,0-12.427,0-18.641,0c-0.794,0.293-1.14,0.868-1.138,1.709
					c0.01,3.748,0.004,7.496,0.004,11.243c0,0.556-0.003,0.589-0.55,0.551c-1.497-0.102-2.516,0.986-2.497,2.492
					c0.044,3.476,0.013,6.953,0.014,10.429c0.001,1.58,0.867,2.443,2.45,2.449c0.582,0.002,0.582,0.002,0.582,0.6
					c0,2.219-0.001,4.438,0.001,6.657c0.001,1.192,0.58,1.771,1.768,1.771c8.013,0.001,16.027,0.001,24.04,0
					c1.168,0,1.755-0.583,1.757-1.745c0.002-2.256,0-4.512,0.001-6.768c0-0.512,0.002-0.511,0.52-0.515
					c0.271-0.002,0.541,0.008,0.809-0.058c0.997-0.246,1.69-1.044,1.694-2.069C224.034,438.696,224.036,434.997,224.019,431.299z
					 M195.568,417.162c5.337,0,10.674,0,16.01,0c0.548,0,0.554,0.007,0.554,0.561c0.001,2.243-0.001,4.486,0.001,6.73
					c0.001,0.811,0.249,1.059,1.06,1.059c1.91,0.001,3.821,0,5.731,0.001c0.458,0,0.479,0.021,0.481,0.483
					c0.003,0.887,0.002,1.775,0,2.662c-0.001,0.477-0.024,0.498-0.504,0.499c-3.895,0.001-7.79,0-11.684,0
					c-3.882,0-7.765,0-11.647,0c-0.55,0-0.552-0.001-0.552-0.561c-0.001-3.624-0.001-7.247,0-10.871
					C195.018,417.166,195.022,417.162,195.568,417.162z M218.854,451.579c-3.883,0.001-7.766,0-11.65,0c-3.871,0-7.742,0-11.613,0
					c-0.572,0-0.574-0.002-0.574-0.579c-0.001-1.997-0.001-3.994,0.001-5.991c0-0.464,0.023-0.486,0.478-0.487
					c7.803-0.001,15.607-0.001,23.41,0c0.478,0,0.499,0.02,0.499,0.503c0.002,1.997,0.001,3.994,0,5.991
					C219.406,451.574,219.401,451.579,218.854,451.579z"/>
			</g>
			<g>
				<path style="fill:#FFFFFF;" d="M205.111,432.771h1.699l2.967,7.897h-1.644l-0.651-1.886h-3.044l-0.651,1.886h-1.643
					L205.111,432.771z M206.997,437.415l-0.706-1.974l-0.287-0.96h-0.088l-0.287,0.96l-0.706,1.974H206.997z"/>
				<path style="fill:#FFFFFF;" d="M211.331,434.536c-0.125,0-0.245-0.024-0.359-0.072c-0.114-0.048-0.213-0.114-0.298-0.199
					c-0.084-0.084-0.151-0.182-0.198-0.292c-0.048-0.11-0.072-0.232-0.072-0.364s0.024-0.254,0.072-0.364
					c0.048-0.11,0.114-0.208,0.198-0.292c0.084-0.084,0.184-0.151,0.298-0.198c0.114-0.048,0.233-0.072,0.359-0.072
					c0.257,0,0.478,0.09,0.662,0.27c0.184,0.181,0.276,0.399,0.276,0.656s-0.092,0.476-0.276,0.656
					C211.809,434.446,211.589,434.536,211.331,434.536z M210.615,440.669v-5.404h1.445v5.404H210.615z"/>
			</g>
			<g>
				<path style="fill:#FFFFFF;" d="M261.044,431.299c-0.006-1.224-0.959-2.121-2.189-2.14c-0.924-0.014-0.832,0.12-0.834-0.867
					c-0.003-1.097-0.007-2.194,0.003-3.292c0.003-0.379-0.112-0.691-0.362-0.976c-2.342-2.668-4.678-5.342-7.019-8.011
					c-0.12-0.137-0.275-0.244-0.414-0.366c-6.214,0-12.427,0-18.641,0c-0.794,0.293-1.14,0.868-1.138,1.709
					c0.01,3.748,0.004,7.496,0.004,11.243c0,0.556-0.003,0.589-0.55,0.551c-1.497-0.102-2.516,0.986-2.497,2.492
					c0.044,3.476,0.013,6.953,0.014,10.429c0.001,1.58,0.867,2.443,2.45,2.449c0.582,0.002,0.582,0.002,0.582,0.6
					c0,2.219-0.001,4.438,0.001,6.657c0.001,1.192,0.58,1.771,1.768,1.771c8.013,0.001,16.027,0.001,24.04,0
					c1.168,0,1.755-0.583,1.757-1.745c0.002-2.256,0-4.512,0.001-6.768c0-0.512,0.002-0.511,0.52-0.515
					c0.271-0.002,0.541,0.008,0.809-0.058c0.996-0.246,1.69-1.044,1.694-2.069C261.059,438.696,261.061,434.997,261.044,431.299z
					 M232.593,417.162c5.337,0,10.674,0,16.01,0c0.548,0,0.554,0.007,0.554,0.561c0.001,2.243-0.001,4.486,0.001,6.73
					c0.001,0.811,0.249,1.059,1.06,1.059c1.91,0.001,3.821,0,5.731,0.001c0.458,0,0.479,0.021,0.481,0.483
					c0.003,0.887,0.002,1.775,0,2.662c-0.001,0.477-0.024,0.498-0.504,0.499c-3.895,0.001-7.79,0-11.684,0
					c-3.882,0-7.765,0-11.647,0c-0.55,0-0.552-0.001-0.552-0.561c-0.001-3.624-0.001-7.247,0-10.871
					C232.042,417.166,232.047,417.162,232.593,417.162z M255.878,451.579c-3.883,0.001-7.766,0-11.65,0c-3.871,0-7.742,0-11.613,0
					c-0.572,0-0.574-0.002-0.574-0.579c-0.001-1.997-0.001-3.994,0.001-5.991c0-0.464,0.023-0.486,0.478-0.487
					c7.803-0.001,15.607-0.001,23.41,0c0.478,0,0.499,0.02,0.499,0.503c0.002,1.997,0.001,3.994,0,5.991
					C256.431,451.574,256.426,451.579,255.878,451.579z"/>
			</g>
			<g>
				<path style="fill:#FFFFFF;" d="M236.361,440.845c-0.338,0-0.662-0.048-0.971-0.143c-0.309-0.095-0.592-0.239-0.849-0.43
					c-0.257-0.191-0.481-0.425-0.673-0.7c-0.191-0.276-0.342-0.597-0.452-0.965l1.401-0.551c0.103,0.397,0.283,0.726,0.54,0.987
					c0.257,0.261,0.596,0.392,1.015,0.392c0.154,0,0.303-0.02,0.447-0.061c0.143-0.04,0.272-0.099,0.386-0.176
					s0.204-0.175,0.27-0.292c0.066-0.118,0.099-0.254,0.099-0.408c0-0.147-0.026-0.279-0.077-0.397
					c-0.051-0.117-0.138-0.227-0.259-0.331c-0.121-0.103-0.28-0.202-0.475-0.298c-0.195-0.095-0.435-0.195-0.722-0.298l-0.485-0.176
					c-0.213-0.073-0.429-0.173-0.645-0.298c-0.217-0.125-0.413-0.276-0.59-0.452c-0.177-0.176-0.322-0.384-0.436-0.623
					c-0.114-0.239-0.171-0.509-0.171-0.81c0-0.309,0.06-0.597,0.182-0.866c0.121-0.268,0.294-0.503,0.518-0.706
					c0.224-0.202,0.492-0.36,0.805-0.474s0.66-0.171,1.042-0.171c0.397,0,0.74,0.053,1.031,0.16
					c0.291,0.107,0.537,0.243,0.739,0.408c0.202,0.165,0.366,0.348,0.491,0.546c0.125,0.199,0.217,0.386,0.276,0.563l-1.312,0.551
					c-0.074-0.221-0.208-0.419-0.402-0.596c-0.195-0.176-0.462-0.265-0.8-0.265c-0.324,0-0.592,0.075-0.805,0.226
					c-0.213,0.151-0.32,0.348-0.32,0.59c0,0.235,0.103,0.436,0.309,0.601c0.206,0.165,0.533,0.325,0.982,0.48l0.497,0.165
					c0.316,0.111,0.605,0.237,0.866,0.381c0.261,0.143,0.485,0.314,0.673,0.513c0.187,0.199,0.331,0.425,0.43,0.678
					c0.1,0.254,0.149,0.546,0.149,0.877c0,0.412-0.083,0.767-0.248,1.064c-0.165,0.298-0.377,0.542-0.634,0.734
					c-0.258,0.191-0.548,0.335-0.872,0.43C236.986,440.797,236.67,440.845,236.361,440.845z"/>
				<path style="fill:#FFFFFF;" d="M239.516,432.771h1.61l1.633,4.754l0.287,1.015h0.088l0.309-1.015l1.699-4.754h1.61l-2.879,7.897
					h-1.566L239.516,432.771z"/>
				<path style="fill:#FFFFFF;" d="M251.097,436.334h3.871c0.022,0.089,0.04,0.195,0.055,0.32c0.015,0.125,0.023,0.25,0.023,0.375
					c0,0.507-0.078,0.985-0.232,1.434c-0.154,0.449-0.397,0.849-0.728,1.202c-0.353,0.375-0.775,0.666-1.268,0.871
					c-0.493,0.206-1.055,0.309-1.688,0.309c-0.574,0-1.114-0.103-1.621-0.309c-0.507-0.206-0.949-0.492-1.324-0.86
					c-0.375-0.367-0.673-0.803-0.894-1.307c-0.22-0.504-0.331-1.053-0.331-1.649c0-0.595,0.11-1.145,0.331-1.649
					c0.221-0.504,0.518-0.939,0.894-1.307c0.375-0.367,0.816-0.654,1.324-0.86c0.507-0.206,1.047-0.309,1.621-0.309
					c0.64,0,1.211,0.11,1.715,0.331c0.504,0.221,0.936,0.526,1.296,0.915l-1.026,1.004c-0.257-0.272-0.544-0.48-0.861-0.623
					c-0.316-0.143-0.694-0.215-1.136-0.215c-0.36,0-0.702,0.065-1.026,0.193c-0.323,0.129-0.607,0.311-0.849,0.546
					c-0.243,0.235-0.436,0.52-0.579,0.855c-0.143,0.335-0.215,0.708-0.215,1.119c0,0.412,0.072,0.785,0.215,1.12
					c0.143,0.335,0.338,0.62,0.585,0.855c0.246,0.235,0.531,0.418,0.854,0.546c0.324,0.129,0.669,0.193,1.037,0.193
					c0.419,0,0.774-0.061,1.064-0.182c0.29-0.121,0.539-0.278,0.745-0.469c0.147-0.132,0.274-0.3,0.38-0.502
					c0.107-0.202,0.189-0.428,0.248-0.678h-2.482V436.334z"/>
			</g>
			<g>
				<path style="fill:#FFFFFF;" d="M297.3,431.299c-0.006-1.224-0.959-2.121-2.189-2.14c-0.924-0.014-0.832,0.12-0.834-0.867
					c-0.003-1.097-0.007-2.194,0.003-3.292c0.003-0.379-0.112-0.691-0.362-0.976c-2.342-2.668-4.678-5.342-7.019-8.011
					c-0.12-0.137-0.275-0.244-0.414-0.366c-6.214,0-12.427,0-18.641,0c-0.794,0.293-1.14,0.868-1.138,1.709
					c0.01,3.748,0.004,7.496,0.004,11.243c0,0.556-0.003,0.589-0.55,0.551c-1.497-0.102-2.516,0.986-2.497,2.492
					c0.044,3.476,0.013,6.953,0.014,10.429c0.001,1.58,0.867,2.443,2.45,2.449c0.582,0.002,0.582,0.002,0.582,0.6
					c0,2.219-0.001,4.438,0.001,6.657c0.001,1.192,0.58,1.771,1.768,1.771c8.013,0.001,16.027,0.001,24.04,0
					c1.168,0,1.755-0.583,1.757-1.745c0.002-2.256,0-4.512,0.001-6.768c0-0.512,0.002-0.511,0.52-0.515
					c0.271-0.002,0.541,0.008,0.809-0.058c0.996-0.246,1.69-1.044,1.694-2.069C297.315,438.696,297.318,434.997,297.3,431.299z
					 M268.85,417.162c5.337,0,10.674,0,16.01,0c0.548,0,0.554,0.007,0.554,0.561c0.001,2.243-0.001,4.486,0.001,6.73
					c0.001,0.811,0.249,1.059,1.06,1.059c1.91,0.001,3.821,0,5.731,0.001c0.458,0,0.479,0.021,0.481,0.483
					c0.003,0.887,0.002,1.775,0,2.662c-0.001,0.477-0.024,0.498-0.504,0.499c-3.895,0.001-7.79,0-11.684,0
					c-3.882,0-7.765,0-11.647,0c-0.55,0-0.552-0.001-0.552-0.561c-0.001-3.624-0.001-7.247,0-10.871
					C268.299,417.166,268.303,417.162,268.85,417.162z M292.135,451.579c-3.883,0.001-7.766,0-11.65,0c-3.871,0-7.742,0-11.613,0
					c-0.572,0-0.574-0.002-0.574-0.579c-0.001-1.997-0.001-3.994,0.001-5.991c0-0.464,0.023-0.486,0.478-0.487
					c7.803-0.001,15.607-0.001,23.41,0c0.478,0,0.499,0.02,0.499,0.503c0.001,1.997,0.001,3.994,0,5.991
					C292.687,451.574,292.682,451.579,292.135,451.579z"/>
			</g>
			<g>
				<path style="fill:#FFFFFF;" d="M272.966,434.183v1.831h3.165v1.412h-3.165v1.831h3.518v1.412h-5.007v-7.897h5.007v1.412H272.966
					z"/>
				<path style="fill:#FFFFFF;" d="M277.852,440.669v-7.897h2.779c0.375,0,0.726,0.061,1.053,0.182
					c0.327,0.121,0.612,0.292,0.855,0.513c0.243,0.221,0.434,0.483,0.574,0.789c0.14,0.305,0.209,0.642,0.209,1.009
					c0,0.375-0.07,0.715-0.209,1.02c-0.14,0.305-0.331,0.568-0.574,0.789c-0.243,0.221-0.528,0.392-0.855,0.513
					c-0.327,0.121-0.678,0.182-1.053,0.182h-1.29v2.901H277.852z M280.653,436.356c0.389,0,0.684-0.111,0.882-0.331
					c0.199-0.22,0.298-0.474,0.298-0.761c0-0.14-0.024-0.276-0.072-0.408c-0.048-0.132-0.121-0.248-0.221-0.347
					c-0.099-0.099-0.222-0.178-0.37-0.237c-0.147-0.059-0.32-0.089-0.518-0.089h-1.312v2.173H280.653z"/>
				<path style="fill:#FFFFFF;" d="M286.797,440.845c-0.338,0-0.662-0.048-0.971-0.143c-0.309-0.095-0.592-0.239-0.849-0.43
					c-0.257-0.191-0.482-0.425-0.673-0.7c-0.191-0.276-0.342-0.597-0.452-0.965l1.401-0.551c0.103,0.397,0.283,0.726,0.541,0.987
					c0.257,0.261,0.595,0.392,1.015,0.392c0.154,0,0.303-0.02,0.447-0.061c0.143-0.04,0.272-0.099,0.386-0.176
					c0.114-0.077,0.204-0.175,0.27-0.292c0.066-0.118,0.1-0.254,0.1-0.408c0-0.147-0.026-0.279-0.077-0.397
					c-0.051-0.117-0.138-0.227-0.259-0.331c-0.121-0.103-0.279-0.202-0.474-0.298c-0.195-0.095-0.436-0.195-0.723-0.298
					l-0.485-0.176c-0.213-0.073-0.428-0.173-0.645-0.298c-0.217-0.125-0.414-0.276-0.59-0.452c-0.176-0.176-0.322-0.384-0.436-0.623
					c-0.114-0.239-0.171-0.509-0.171-0.81c0-0.309,0.061-0.597,0.182-0.866c0.121-0.268,0.294-0.503,0.518-0.706
					c0.224-0.202,0.493-0.36,0.805-0.474c0.312-0.114,0.66-0.171,1.042-0.171c0.397,0,0.741,0.053,1.031,0.16
					c0.29,0.107,0.537,0.243,0.739,0.408c0.202,0.165,0.365,0.348,0.491,0.546c0.125,0.199,0.217,0.386,0.276,0.563l-1.312,0.551
					c-0.074-0.221-0.208-0.419-0.403-0.596c-0.195-0.176-0.462-0.265-0.799-0.265c-0.324,0-0.592,0.075-0.805,0.226
					c-0.213,0.151-0.32,0.348-0.32,0.59c0,0.235,0.103,0.436,0.309,0.601c0.206,0.165,0.533,0.325,0.982,0.48l0.496,0.165
					c0.316,0.111,0.605,0.237,0.866,0.381c0.261,0.143,0.485,0.314,0.673,0.513c0.187,0.199,0.331,0.425,0.43,0.678
					c0.099,0.254,0.149,0.546,0.149,0.877c0,0.412-0.083,0.767-0.248,1.064c-0.165,0.298-0.377,0.542-0.634,0.734
					c-0.258,0.191-0.548,0.335-0.872,0.43C287.422,440.797,287.105,440.845,286.797,440.845z"/>
			</g>
			<g>
				<path style="fill:#FFFFFF;" d="M321.394,439.168l4.004-4.985h-3.827v-1.412h5.559v1.5l-3.96,4.985h4.004v1.412h-5.779V439.168z"
					/>
				<path style="fill:#FFFFFF;" d="M328.409,432.771h1.489v7.897h-1.489V432.771z"/>
				<path style="fill:#FFFFFF;" d="M331.486,440.669v-7.897h2.779c0.375,0,0.726,0.061,1.053,0.182
					c0.327,0.121,0.612,0.292,0.855,0.513s0.434,0.483,0.574,0.789c0.14,0.305,0.209,0.642,0.209,1.009
					c0,0.375-0.07,0.715-0.209,1.02c-0.14,0.305-0.331,0.568-0.574,0.789c-0.243,0.221-0.528,0.392-0.855,0.513
					c-0.327,0.121-0.678,0.182-1.053,0.182h-1.29v2.901H331.486z M334.288,436.356c0.389,0,0.684-0.111,0.882-0.331
					c0.199-0.22,0.298-0.474,0.298-0.761c0-0.14-0.024-0.276-0.072-0.408c-0.048-0.132-0.121-0.248-0.221-0.347
					c-0.099-0.099-0.222-0.178-0.37-0.237c-0.147-0.059-0.32-0.089-0.518-0.089h-1.312v2.173H334.288z"/>
			</g>
		</g>
		<g style="opacity:0.61;">
			<path style="fill:#FFFFFF;" d="M300.133,433.27h9.067v2.242h-9.067V433.27z M300.133,437.136h9.067v2.243h-9.067V437.136z"/>
		</g>
	</g>
	<g style="opacity:0.61;">
		<path style="fill:#FFFFFF;" d="M156.756,478.878h1.607c1.263,0,2.114,0.812,2.114,1.974c0,1.161-0.851,1.973-2.114,1.973h-1.607
			V478.878z M158.34,482.464c1.049,0,1.725-0.665,1.725-1.612c0-0.947-0.677-1.613-1.725-1.613h-1.167v3.225H158.34z"/>
		<path style="fill:#FFFFFF;" d="M165.139,480.851c0-1.15,0.879-2.007,2.075-2.007c1.184,0,2.069,0.851,2.069,2.007
			c0,1.156-0.885,2.007-2.069,2.007C166.019,482.858,165.139,482.002,165.139,480.851z M168.866,480.851
			c0-0.942-0.705-1.635-1.652-1.635c-0.953,0-1.663,0.693-1.663,1.635c0,0.941,0.71,1.635,1.663,1.635
			C168.162,482.486,168.866,481.793,168.866,480.851z"/>
		<path style="fill:#FFFFFF;" d="M179.596,478.878l-1.331,3.947h-0.44l-1.156-3.366l-1.161,3.366h-0.434l-1.331-3.947h0.429
			l1.139,3.394l1.178-3.394h0.389l1.161,3.411l1.156-3.411H179.596z"/>
		<path style="fill:#FFFFFF;" d="M187.731,478.878v3.947h-0.344l-2.537-3.202v3.202h-0.417v-3.947h0.344l2.543,3.203v-3.203H187.731
			z"/>
		<path style="fill:#FFFFFF;" d="M193.093,478.878h0.417v3.586h2.21v0.361h-2.627V478.878z"/>
		<path style="fill:#FFFFFF;" d="M200.061,480.851c0-1.15,0.879-2.007,2.075-2.007c1.184,0,2.069,0.851,2.069,2.007
			c0,1.156-0.885,2.007-2.069,2.007C200.941,482.858,200.061,482.002,200.061,480.851z M203.788,480.851
			c0-0.942-0.705-1.635-1.652-1.635c-0.953,0-1.663,0.693-1.663,1.635c0,0.941,0.71,1.635,1.663,1.635
			C203.083,482.486,203.788,481.793,203.788,480.851z"/>
		<path style="fill:#FFFFFF;" d="M211.636,481.77h-2.199l-0.474,1.054h-0.434l1.804-3.947h0.412l1.804,3.947h-0.44L211.636,481.77z
			 M211.484,481.432l-0.947-2.12l-0.947,2.12H211.484z"/>
		<path style="fill:#FFFFFF;" d="M217.28,478.878h1.607c1.263,0,2.114,0.812,2.114,1.974c0,1.161-0.851,1.973-2.114,1.973h-1.607
			V478.878z M218.864,482.464c1.049,0,1.725-0.665,1.725-1.612c0-0.947-0.677-1.613-1.725-1.613h-1.167v3.225H218.864z"/>
		<path style="fill:#FFFFFF;" d="M234.041,481.77h-2.199l-0.474,1.054h-0.434l1.804-3.947h0.412l1.804,3.947h-0.44L234.041,481.77z
			 M233.889,481.432l-0.947-2.12l-0.947,2.12H233.889z"/>
		<path style="fill:#FFFFFF;" d="M239.685,478.878h0.417v3.586h2.21v0.361h-2.627V478.878z"/>
		<path style="fill:#FFFFFF;" d="M247.082,478.878h0.417v3.586h2.21v0.361h-2.627V478.878z"/>
		<path style="fill:#FFFFFF;" d="M260.449,479.239v1.551h2.041v0.361h-2.041v1.675h-0.417v-3.947h2.706v0.361H260.449z"/>
		<path style="fill:#FFFFFF;" d="M267.678,478.878h0.417v3.947h-0.417V478.878z"/>
		<path style="fill:#FFFFFF;" d="M273.456,478.878h0.417v3.586h2.21v0.361h-2.627V478.878z"/>
		<path style="fill:#FFFFFF;" d="M283.644,482.464v0.361h-2.791v-3.947h2.706v0.361h-2.289v1.404h2.041v0.355h-2.041v1.466H283.644z
			"/>
		<path style="fill:#FFFFFF;" d="M294.672,479.239v1.551h2.041v0.361h-2.041v1.675h-0.417v-3.947h2.706v0.361H294.672z"/>
		<path style="fill:#FFFFFF;" d="M301.5,480.851c0-1.15,0.879-2.007,2.075-2.007c1.184,0,2.069,0.851,2.069,2.007
			c0,1.156-0.885,2.007-2.069,2.007C302.379,482.858,301.5,482.002,301.5,480.851z M305.226,480.851
			c0-0.942-0.705-1.635-1.652-1.635c-0.953,0-1.663,0.693-1.663,1.635c0,0.941,0.71,1.635,1.663,1.635
			C304.522,482.486,305.226,481.793,305.226,480.851z"/>
		<path style="fill:#FFFFFF;" d="M313.351,482.825l-0.902-1.269c-0.102,0.011-0.203,0.017-0.316,0.017h-1.06v1.252h-0.417v-3.947
			h1.477c1.004,0,1.613,0.507,1.613,1.353c0,0.62-0.327,1.054-0.902,1.24l0.964,1.353H313.351z M313.328,480.231
			c0-0.632-0.417-0.992-1.207-0.992h-1.048v1.979h1.048C312.911,481.218,313.328,480.851,313.328,480.231z"/>
		<path style="fill:#FFFFFF;" d="M322.907,478.878v3.947h-0.4v-3.158l-1.551,2.656h-0.197l-1.551-2.639v3.14h-0.4v-3.947h0.344
			l1.714,2.926l1.697-2.926H322.907z"/>
		<path style="fill:#FFFFFF;" d="M330.744,481.77h-2.199l-0.473,1.054h-0.434l1.804-3.947h0.411l1.804,3.947h-0.44L330.744,481.77z
			 M330.592,481.432l-0.947-2.12l-0.947,2.12H330.592z"/>
		<path style="fill:#FFFFFF;" d="M336.957,479.239h-1.387v-0.361h3.192v0.361h-1.387v3.586h-0.417V479.239z"/>
		<path style="fill:#FFFFFF;" d="M343.063,482.346l0.164-0.321c0.282,0.276,0.784,0.479,1.302,0.479c0.739,0,1.06-0.31,1.06-0.699
			c0-1.083-2.43-0.417-2.43-1.877c0-0.581,0.451-1.083,1.455-1.083c0.446,0,0.908,0.13,1.224,0.35l-0.141,0.333
			c-0.338-0.22-0.733-0.327-1.083-0.327c-0.722,0-1.043,0.321-1.043,0.716c0,1.083,2.43,0.429,2.43,1.866
			c0,0.581-0.462,1.077-1.472,1.077C343.937,482.858,343.356,482.65,343.063,482.346z"/>
	</g>
</g>
<g>
</g>
<g>
	<path style="fill:#A39D65;" d="M357.566,330.449c-0.18-0.511-0.426-0.955-0.74-1.332c-0.313-0.378-0.684-0.677-1.106-0.893
		c-0.424-0.219-0.874-0.329-1.355-0.329c-0.935,0-1.854,0.233-2.755,0.701c-0.898,0.467-1.767,1.17-2.599,2.104v-9.596h-0.784
		l-1.954,0.783v20.106h2.738v-10.239c0.31-0.3,0.63-0.572,0.956-0.815c0.333-0.245,0.666-0.455,0.998-0.632
		c0.337-0.176,0.667-0.31,0.994-0.405c0.325-0.094,0.634-0.139,0.924-0.139c0.653,0,1.185,0.235,1.595,0.705
		c0.412,0.473,0.619,1.162,0.619,2.072v9.453h2.74v-9.917C357.837,331.501,357.747,330.958,357.566,330.449L357.566,330.449z
		 M343.268,340.326c-0.256,0.154-0.534,0.226-0.843,0.226c-0.206,0-0.401-0.037-0.587-0.116c-0.183-0.077-0.342-0.182-0.475-0.314
		c-0.133-0.131-0.238-0.288-0.316-0.471c-0.078-0.179-0.114-0.373-0.114-0.578v-9.74h3.1v-1.157h-3.1v-4.723h-0.786
		c-0.136,0.704-0.297,1.369-0.475,1.995c-0.181,0.627-0.43,1.179-0.746,1.654c-0.319,0.475-0.724,0.853-1.223,1.133
		c-0.497,0.279-1.134,0.418-1.904,0.418v0.68h2.394v9.74c0,0.48,0.054,0.919,0.158,1.312c0.108,0.394,0.272,0.732,0.495,1.02
		c0.224,0.279,0.504,0.499,0.844,0.653c0.339,0.155,0.739,0.233,1.203,0.233c0.893,0,1.642-0.186,2.251-0.556
		c0.61-0.366,1.098-0.869,1.468-1.506l-0.682-0.462C343.741,339.993,343.521,340.18,343.268,340.326L343.268,340.326z
		 M331.17,321.886v20.106h2.739v-20.889h-0.785L331.17,321.886L331.17,321.886z M324.62,339.099
		c-0.275,0.206-0.542,0.402-0.806,0.587c-0.261,0.183-0.522,0.343-0.781,0.48c-0.264,0.138-0.535,0.248-0.81,0.329
		c-0.28,0.085-0.575,0.123-0.884,0.123c-0.291,0-0.573-0.068-0.841-0.2c-0.272-0.131-0.507-0.312-0.716-0.541
		c-0.206-0.228-0.371-0.491-0.495-0.797c-0.126-0.304-0.185-0.622-0.185-0.958c0-0.327,0.079-0.637,0.242-0.94
		c0.165-0.301,0.385-0.582,0.663-0.849c0.279-0.266,0.604-0.516,0.972-0.752c0.369-0.235,0.759-0.456,1.166-0.655
		c0.405-0.203,0.822-0.385,1.248-0.549c0.422-0.163,0.833-0.307,1.227-0.436V339.099L324.62,339.099z M326.28,328.899
		c-0.387-0.316-0.892-0.565-1.518-0.74c-0.625-0.175-1.393-0.264-2.303-0.264c-0.746,0-1.458,0.082-2.135,0.252
		c-0.678,0.166-1.27,0.392-1.775,0.681c-0.504,0.288-0.908,0.628-1.21,1.023c-0.297,0.393-0.45,0.818-0.45,1.273
		c0,0.231,0.035,0.446,0.104,0.642c0.07,0.198,0.169,0.369,0.295,0.513c0.129,0.145,0.282,0.261,0.457,0.343
		c0.174,0.079,0.371,0.121,0.585,0.121c0.274,0,0.5-0.051,0.675-0.154c0.177-0.103,0.316-0.238,0.417-0.406
		c0.104-0.167,0.175-0.361,0.213-0.585c0.04-0.223,0.058-0.454,0.058-0.696c0-0.256,0.031-0.51,0.09-0.764
		c0.061-0.254,0.174-0.478,0.342-0.674c0.167-0.2,0.397-0.357,0.687-0.475c0.292-0.121,0.67-0.181,1.134-0.181
		c0.412,0,0.784,0.06,1.112,0.174c0.331,0.114,0.613,0.305,0.844,0.572c0.23,0.267,0.41,0.612,0.535,1.048
		c0.123,0.433,0.184,0.964,0.184,1.59v0.861c-0.617,0.156-1.248,0.319-1.897,0.502c-0.648,0.179-1.278,0.386-1.885,0.617
		c-0.61,0.231-1.185,0.493-1.731,0.784c-0.543,0.292-1.021,0.627-1.426,1.003c-0.409,0.378-0.731,0.805-0.966,1.28
		c-0.236,0.478-0.354,1.011-0.354,1.603c0,0.487,0.081,0.941,0.246,1.363c0.162,0.423,0.396,0.784,0.708,1.091
		c0.308,0.31,0.68,0.554,1.118,0.729c0.436,0.176,0.924,0.266,1.465,0.266c0.583,0,1.097-0.068,1.538-0.198
		c0.44-0.137,0.843-0.308,1.208-0.524c0.366-0.214,0.705-0.451,1.017-0.709c0.312-0.254,0.634-0.509,0.959-0.759v1.89h2.754v-10.432
		c0-0.548-0.087-1.048-0.257-1.504C326.945,329.601,326.665,329.215,326.28,328.899L326.28,328.899z M304.314,331.143
		c0.192-0.449,0.438-0.839,0.733-1.165c0.295-0.324,0.635-0.582,1.018-0.772c0.381-0.187,0.778-0.282,1.189-0.282
		c0.496,0,0.96,0.095,1.394,0.282c0.435,0.19,0.811,0.448,1.132,0.777c0.322,0.333,0.576,0.722,0.761,1.173
		c0.183,0.451,0.275,0.937,0.275,1.46l-6.856-0.013C304.002,332.079,304.119,331.593,304.314,331.143L304.314,331.143z
		 M313.18,338.064c-0.316,0.408-0.696,0.767-1.139,1.08c-0.448,0.315-0.945,0.567-1.495,0.759c-0.55,0.193-1.123,0.289-1.724,0.289
		c-0.711,0-1.367-0.163-1.966-0.489c-0.601-0.325-1.117-0.775-1.545-1.349c-0.428-0.574-0.764-1.258-1.003-2.052
		c-0.241-0.792-0.36-1.652-0.36-2.58h10.304c0-0.771-0.15-1.509-0.45-2.211c-0.301-0.705-0.719-1.325-1.26-1.859
		c-0.541-0.535-1.188-0.961-1.944-1.282c-0.756-0.318-1.587-0.475-2.497-0.475c-1.019,0-1.947,0.194-2.784,0.58
		c-0.836,0.384-1.551,0.921-2.143,1.606c-0.591,0.686-1.049,1.503-1.376,2.448c-0.326,0.94-0.488,1.967-0.488,3.074
		c0,0.924,0.177,1.793,0.535,2.604c0.353,0.81,0.837,1.518,1.452,2.12c0.614,0.607,1.329,1.084,2.149,1.434
		c0.82,0.353,1.695,0.531,2.631,0.531c0.713,0,1.416-0.136,2.118-0.407c0.697-0.27,1.341-0.635,1.927-1.099
		c0.588-0.462,1.105-1.008,1.546-1.627c0.44-0.62,0.761-1.288,0.958-2.001l-0.785-0.345
		C313.711,337.238,313.49,337.657,313.18,338.064L313.18,338.064z M295.082,332.241h-9.004v-8.166h-3.01v17.918h3.01v-8.592h9.004
		v8.592h3.012v-17.918h-3.012V332.241L295.082,332.241z M273.984,321.791c-0.325-0.21-0.725-0.38-1.202-0.503
		c-0.476-0.123-1.021-0.185-1.627-0.185c-0.711,0-1.38,0.138-2.006,0.423c-0.627,0.284-1.173,0.673-1.635,1.165
		c-0.464,0.492-0.831,1.072-1.1,1.736c-0.27,0.665-0.406,1.376-0.406,2.127v1.624h-2.893v1.157h2.893v12.658h2.754v-12.658h3.692
		v-1.157h-3.692v-3.279c0-0.353,0.046-0.696,0.14-1.029c0.094-0.338,0.226-0.632,0.394-0.889c0.166-0.257,0.368-0.464,0.605-0.622
		c0.236-0.158,0.491-0.242,0.764-0.242c0.36,0,0.638,0.068,0.829,0.194c0.195,0.13,0.343,0.293,0.446,0.491
		c0.102,0.197,0.18,0.409,0.236,0.635c0.057,0.229,0.131,0.442,0.225,0.639c0.095,0.195,0.231,0.36,0.406,0.488
		c0.175,0.13,0.432,0.192,0.764,0.192c0.189,0,0.371-0.03,0.54-0.088c0.172-0.06,0.325-0.145,0.452-0.257
		c0.128-0.113,0.232-0.246,0.31-0.406c0.075-0.157,0.114-0.342,0.114-0.548c0-0.325-0.085-0.63-0.256-0.917
		C274.56,322.251,274.311,321.999,273.984,321.791L273.984,321.791z M258.342,338.095c-0.18,0.628-0.436,1.174-0.767,1.643
		c-0.329,0.466-0.719,0.842-1.169,1.118c-0.453,0.279-0.948,0.42-1.487,0.42c-0.747,0-1.417-0.193-2.008-0.574
		c-0.59-0.381-1.09-0.901-1.491-1.557c-0.404-0.656-0.713-1.425-0.926-2.307c-0.214-0.884-0.323-1.829-0.323-2.832
		c0-0.696,0.099-1.35,0.297-1.967c0.198-0.62,0.461-1.16,0.791-1.622c0.331-0.466,0.711-0.828,1.14-1.095
		c0.428-0.266,0.874-0.399,1.338-0.399c0.9,0,1.659,0.185,2.276,0.56c0.616,0.374,1.121,0.887,1.506,1.539
		c0.384,0.649,0.663,1.411,0.834,2.281c0.173,0.87,0.258,1.807,0.258,2.811C258.611,336.811,258.522,337.47,258.342,338.095
		L258.342,338.095z M259.629,329.868c-0.653-0.612-1.422-1.093-2.313-1.445c-0.885-0.353-1.858-0.528-2.911-0.528
		c-1.055,0-2.03,0.194-2.926,0.58c-0.897,0.384-1.668,0.91-2.315,1.576c-0.649,0.665-1.155,1.443-1.52,2.341
		c-0.364,0.898-0.547,1.857-0.547,2.874c0,0.971,0.182,1.879,0.547,2.735c0.365,0.853,0.871,1.599,1.52,2.23
		c0.647,0.637,1.418,1.14,2.315,1.506c0.897,0.37,1.871,0.556,2.926,0.556c1.054,0,2.026-0.198,2.911-0.601
		c0.891-0.399,1.66-0.943,2.313-1.632c0.65-0.69,1.158-1.496,1.523-2.418c0.364-0.925,0.548-1.907,0.548-2.955
		c0-0.944-0.184-1.828-0.548-2.655C260.788,331.203,260.279,330.484,259.629,329.868L259.629,329.868z M232.419,338.161
		l-5.338-9.969h-3.126l7.074,13.158l-0.927,2.072c-0.111,0.247-0.234,0.517-0.373,0.81c-0.138,0.292-0.296,0.56-0.476,0.803
		c-0.179,0.245-0.382,0.449-0.603,0.611c-0.223,0.165-0.476,0.245-0.759,0.245c-0.266,0-0.476-0.031-0.629-0.095
		c-0.156-0.064-0.301-0.139-0.439-0.219c-0.136-0.083-0.289-0.155-0.457-0.219c-0.164-0.063-0.395-0.095-0.688-0.095
		c-0.249,0-0.474,0.042-0.676,0.128c-0.201,0.083-0.373,0.199-0.513,0.333c-0.143,0.138-0.252,0.299-0.33,0.482
		c-0.077,0.183-0.116,0.373-0.116,0.561c0,0.232,0.059,0.445,0.175,0.644c0.117,0.195,0.274,0.363,0.477,0.506
		c0.201,0.143,0.438,0.253,0.706,0.328c0.27,0.077,0.558,0.116,0.857,0.116c0.436,0,0.883-0.078,1.336-0.236
		c0.457-0.161,0.901-0.4,1.333-0.722c0.432-0.321,0.843-0.731,1.229-1.227c0.388-0.499,0.729-1.085,1.029-1.763l7.051-16.222h-1.467
		L232.419,338.161L232.419,338.161z M222.957,328.39c-0.192-0.15-0.418-0.269-0.675-0.362c-0.258-0.087-0.535-0.133-0.835-0.133
		c-0.372,0-0.733,0.076-1.089,0.23c-0.356,0.156-0.701,0.366-1.037,0.631c-0.334,0.264-0.657,0.575-0.964,0.928
		c-0.307,0.351-0.598,0.718-0.861,1.104v-2.611h-2.728v13.815h2.728v-9.568c0.188-0.311,0.376-0.597,0.567-0.856
		c0.188-0.261,0.373-0.488,0.559-0.682c0.185-0.192,0.368-0.343,0.552-0.45c0.185-0.108,0.368-0.161,0.548-0.161
		c0.232,0,0.425,0.032,0.578,0.096c0.156,0.065,0.308,0.139,0.458,0.218c0.149,0.082,0.315,0.155,0.502,0.22
		c0.183,0.063,0.43,0.095,0.74,0.095c0.496,0,0.886-0.112,1.164-0.342c0.277-0.225,0.417-0.562,0.417-1.008
		c0-0.223-0.056-0.436-0.169-0.636C223.303,328.716,223.149,328.539,222.957,328.39L222.957,328.39z M211.764,340.326
		c-0.251,0.154-0.532,0.226-0.842,0.226c-0.205,0-0.4-0.037-0.584-0.116c-0.187-0.077-0.344-0.182-0.476-0.314
		c-0.135-0.131-0.24-0.288-0.318-0.471c-0.077-0.179-0.114-0.373-0.114-0.578v-9.74h3.099v-1.157h-3.099v-4.723h-0.785
		c-0.137,0.704-0.296,1.369-0.476,1.995c-0.18,0.627-0.427,1.179-0.746,1.654c-0.317,0.475-0.725,0.853-1.222,1.133
		c-0.497,0.279-1.133,0.418-1.904,0.418v0.68h2.393v9.74c0,0.48,0.054,0.919,0.16,1.312c0.107,0.394,0.272,0.732,0.496,1.02
		c0.223,0.279,0.505,0.499,0.841,0.653c0.342,0.155,0.742,0.233,1.204,0.233c0.893,0,1.643-0.186,2.252-0.556
		c0.608-0.366,1.098-0.869,1.467-1.506l-0.681-0.462C212.238,339.993,212.017,340.18,211.764,340.326L211.764,340.326z
		 M201.723,335.467c-0.375-0.333-0.803-0.622-1.286-0.869c-0.479-0.249-0.973-0.482-1.478-0.701c-0.505-0.221-1-0.434-1.48-0.643
		c-0.478-0.21-0.908-0.439-1.287-0.688c-0.377-0.25-0.681-0.525-0.913-0.836c-0.23-0.31-0.347-0.671-0.347-1.08
		c0-0.248,0.063-0.484,0.194-0.706c0.127-0.226,0.305-0.419,0.536-0.588c0.233-0.167,0.513-0.297,0.84-0.397
		c0.327-0.098,0.681-0.148,1.068-0.148c0.737,0,1.429,0.21,2.078,0.629c0.647,0.421,1.231,1.061,1.755,1.918l1.003-0.902
		c-0.41-0.538-0.806-0.975-1.188-1.311c-0.383-0.334-0.764-0.594-1.147-0.778c-0.38-0.185-0.774-0.308-1.175-0.373
		c-0.404-0.066-0.834-0.097-1.288-0.097c-0.684,0-1.318,0.097-1.897,0.288c-0.58,0.197-1.078,0.462-1.492,0.808
		c-0.415,0.342-0.743,0.748-0.98,1.221c-0.234,0.47-0.352,0.987-0.352,1.543c0,0.594,0.105,1.104,0.314,1.539
		c0.209,0.432,0.49,0.815,0.836,1.143c0.35,0.329,0.745,0.622,1.191,0.875c0.446,0.253,0.896,0.486,1.357,0.706
		c0.459,0.219,0.911,0.431,1.358,0.637c0.446,0.205,0.843,0.435,1.19,0.688c0.347,0.253,0.627,0.537,0.837,0.848
		c0.211,0.317,0.314,0.68,0.314,1.101c0,0.26-0.062,0.511-0.193,0.76c-0.128,0.249-0.306,0.465-0.533,0.658
		c-0.227,0.187-0.5,0.338-0.818,0.454c-0.315,0.115-0.663,0.175-1.041,0.175c-0.394,0-0.761-0.05-1.101-0.148
		c-0.337-0.1-0.664-0.255-0.977-0.464c-0.313-0.212-0.624-0.481-0.933-0.81c-0.307-0.331-0.629-0.731-0.964-1.204l-1.12,1.016
		c0.411,0.541,0.833,0.98,1.266,1.315c0.435,0.335,0.868,0.593,1.301,0.775c0.433,0.186,0.861,0.311,1.286,0.373
		c0.423,0.067,0.839,0.099,1.241,0.099c0.884,0,1.657-0.11,2.322-0.325c0.663-0.211,1.215-0.505,1.653-0.879
		c0.439-0.371,0.767-0.816,0.984-1.326c0.22-0.509,0.33-1.056,0.33-1.639c0-0.576-0.115-1.079-0.35-1.514
		C202.406,336.177,202.103,335.798,201.723,335.467L201.723,335.467z M187.213,328.682v13.311h2.725v-14.098h-0.798L187.213,328.682
		L187.213,328.682z M189.665,321.506c-0.144-0.123-0.309-0.223-0.502-0.295c-0.193-0.074-0.398-0.107-0.613-0.107
		c-0.214,0-0.413,0.034-0.604,0.107c-0.189,0.073-0.354,0.172-0.495,0.295c-0.143,0.126-0.255,0.272-0.342,0.436
		c-0.085,0.169-0.129,0.347-0.129,0.535c0,0.19,0.044,0.368,0.129,0.536c0.087,0.167,0.199,0.312,0.342,0.437
		c0.141,0.125,0.306,0.223,0.495,0.295c0.191,0.073,0.39,0.111,0.604,0.111c0.215,0,0.42-0.038,0.613-0.111
		c0.193-0.072,0.357-0.17,0.502-0.295c0.139-0.125,0.253-0.27,0.338-0.437c0.086-0.168,0.132-0.346,0.132-0.536
		c0-0.188-0.045-0.366-0.132-0.535C189.918,321.778,189.804,321.633,189.665,321.506L189.665,321.506z M182.909,329.118
		c-0.312-0.378-0.68-0.677-1.105-0.893c-0.425-0.219-0.877-0.329-1.358-0.329c-0.933,0-1.853,0.233-2.753,0.701
		c-0.901,0.467-1.767,1.17-2.599,2.104v-2.522h-2.738v13.815h2.738v-10.239c0.311-0.3,0.633-0.572,0.965-0.815
		c0.335-0.245,0.671-0.455,1.004-0.632c0.335-0.176,0.663-0.31,0.989-0.405c0.327-0.094,0.635-0.139,0.927-0.139
		c0.646,0,1.171,0.235,1.583,0.705c0.412,0.473,0.617,1.162,0.617,2.072v9.453h2.753v-9.917c0-0.574-0.091-1.117-0.276-1.626
		C183.471,329.939,183.222,329.494,182.909,329.118L182.909,329.118z M168.733,321.506c-0.14-0.123-0.309-0.223-0.503-0.295
		c-0.193-0.074-0.395-0.107-0.609-0.107c-0.215,0-0.416,0.034-0.606,0.107c-0.188,0.073-0.354,0.172-0.496,0.295
		c-0.142,0.126-0.253,0.272-0.34,0.436c-0.086,0.169-0.128,0.347-0.128,0.535c0,0.19,0.042,0.368,0.128,0.536
		c0.087,0.167,0.198,0.312,0.34,0.437c0.142,0.125,0.308,0.223,0.496,0.295c0.19,0.073,0.392,0.111,0.606,0.111
		c0.214,0,0.416-0.038,0.609-0.111c0.194-0.072,0.362-0.17,0.503-0.295c0.142-0.125,0.255-0.27,0.339-0.437
		c0.087-0.168,0.129-0.346,0.129-0.536c0-0.188-0.042-0.366-0.129-0.535C168.988,321.778,168.875,321.633,168.733,321.506
		L168.733,321.506z M166.282,328.682v13.311h2.727v-14.098h-0.797L166.282,328.682L166.282,328.682z M152.427,337.826h-0.142
		l-6.973-13.752h-3.075v17.918h1.326v-14.573h0.206l7.435,14.573h0.617l7.345-14.676h0.103v14.676h3.024v-17.918h-3.024
		L152.427,337.826L152.427,337.826z"/>
	<path style="fill-rule:evenodd;clip-rule:evenodd;fill:#A39D65;" d="M290.492,214.085c-1.672,1.01-3.358,2.125-4.233,2.732
		c-2.723,1.893-5.472,3.889-8.216,5.971c-12.123,9.186-24.125,19.954-33.299,30.265h-21.887c0,0,53.572-46.233,78.165-49.776
		c21.915-3.157,30.414,12.691,28.609,29.757c0.221-2.094,0.189-4.227-0.13-6.122c-0.77-4.568-2.721-8.314-5.388-11.231
		c-2.16-2.363-4.845-4.455-8.442-5.815c-3.098-1.17-6.446-1.703-10.049-1.368C305.621,208.498,299.317,208.757,290.492,214.085
		L290.492,214.085z"/>
	<path style="fill-rule:evenodd;clip-rule:evenodd;fill:#A39D65;" d="M209.46,214.085c1.673,1.01,3.358,2.125,4.232,2.732
		c2.724,1.893,5.474,3.889,8.217,5.971c12.124,9.186,24.126,19.954,33.299,30.265h21.885c0,0-53.569-46.233-78.161-49.776
		c-21.917-3.157-30.418,12.691-28.609,29.757c-0.223-2.094-0.19-4.227,0.127-6.122c0.772-4.568,2.723-8.314,5.387-11.231
		c2.161-2.363,4.845-4.455,8.445-5.815c3.095-1.17,6.446-1.703,10.049-1.368C194.332,208.498,200.637,208.757,209.46,214.085
		L209.46,214.085z"/>
	<path style="fill:#007A42;" d="M306.325,308.372c0,3.964-1.59,5.58-5.488,5.58c-0.408,0-1.02-0.071-1.5-0.152l-0.381,2.419
		c1.234,0.18,1.747,0.217,2.722,0.217c2.303,0,7.664-0.696,7.664-7.131v-21.367h-3.017V308.372L306.325,308.372z M294.175,275.319
		c-1.27,0-2.297,1.027-2.297,2.298c0,1.267,1.027,2.299,2.297,2.299c1.268,0,2.296-1.032,2.296-2.299
		C296.471,276.346,295.443,275.319,294.175,275.319L294.175,275.319z M331.895,308.372c0,3.964-1.592,5.58-5.485,5.58
		c-0.411,0-1.025-0.071-1.503-0.152l-0.38,2.419c1.232,0.18,1.746,0.217,2.717,0.217c2.307,0,7.672-0.696,7.672-7.131v-21.367
		h-3.021V308.372L331.895,308.372z M355.726,285.373c-7.868,0-14.029,5.361-14.029,12.207c0,6.531,5.736,8.901,9.593,8.901
		c0.535,0,0.919-0.01,1.139-0.028l1.503-1.542l0.642-0.662h-2.004c-3.808,0-7.652-2.169-7.652-7.013c0-4.334,4.01-9.184,9.378-9.184
		h0.509v18.889c0,3.617-0.677,6.966-5.584,6.966c-0.423,0-0.971-0.059-1.553-0.157l-0.383,2.308
		c0.727,0.144,1.508,0.229,2.724,0.229c2.352,0,7.817-0.787,7.817-8.063v-22.673C356.984,285.432,356.31,285.373,355.726,285.373
		L355.726,285.373z M333.404,275.319c-1.269,0-2.298,1.027-2.298,2.298c0,1.267,1.029,2.299,2.298,2.299
		c1.269,0,2.299-1.032,2.299-2.299C335.703,276.346,334.673,275.319,333.404,275.319L333.404,275.319z M293.073,304.249h-2.876
		c-5.252,0-7.603-3.648-7.603-7.262c0-6.376,4.831-9.819,9.378-9.819h1.101V304.249L293.073,304.249z M279.326,297.381
		c0,5.184,4.292,9.1,9.983,9.1h6.786v-21.619c-0.864-0.118-1.852-0.175-2.944-0.175C285.4,284.687,279.326,290.262,279.326,297.381
		L279.326,297.381z M318.591,306.481h3.02v-34.556h-3.02V306.481L318.591,306.481z M156.982,279.893
		c1.268,0,2.297-1.028,2.297-2.298c0-1.272-1.03-2.299-2.297-2.299c-1.269,0-2.299,1.027-2.299,2.299
		C154.682,278.865,155.713,279.893,156.982,279.893L156.982,279.893z M287.303,279.915c1.271,0,2.298-1.032,2.298-2.299
		c0-1.271-1.027-2.298-2.298-2.298c-1.268,0-2.296,1.027-2.296,2.298C285.008,278.884,286.035,279.915,287.303,279.915
		L287.303,279.915z M150.109,279.893c1.27,0,2.298-1.028,2.298-2.298c0-1.272-1.028-2.299-2.298-2.299
		c-1.269,0-2.297,1.027-2.297,2.299C147.812,278.865,148.841,279.893,150.109,279.893L150.109,279.893z M261.296,306.481h3.021
		v-34.556h-3.021V306.481L261.296,306.481z M235.957,303.863l-0.095,0.386h-21.582l0.14-0.622
		c1.884-8.409,9.441-14.933,14.688-14.933c1.69,0,7.207,0.793,7.207,11.001C236.316,300.335,236.292,302.52,235.957,303.863
		L235.957,303.863z M248.731,304.249h-9.732l0.102-0.599c0.302-1.706,0.436-3.486,0.436-4.495c0-5.971-2.641-12.943-10.083-12.943
		c-2.549,0-5.011,1.15-7.044,2.585c-2.326,1.64-4.415,3.642-5.975,6.032c-1.766,2.7-3.099,5.718-4.601,8.569
		c-0.151,0.285-0.3,0.568-0.448,0.852h-0.154v-11.512h-3.023v11.512h-8.81v-1.15c0-12.17-8.804-16.49-16.342-16.49h-11.607v2.57
		c0.845-0.063,10.715-0.089,11.214-0.089c8.42,0,13.47,5.472,13.516,14.645l0.002,0.515h-37.246v-19.387
		c-0.885-0.103-2.455-0.175-3.141-0.175c-5.498,0-13.631,3.955-13.631,12.449c0,2.845,1.023,5.242,2.966,6.925
		c1.795,1.562,4.29,2.421,7.021,2.421h0.961l1.919-2.054l0.163-0.179h-2.208c-4.516,0-7.554-2.919-7.554-7.262
		c0-4.003,1.939-6.366,3.564-7.644c2.047-1.607,4.44-2.175,5.865-2.175h1.051v19.313h95.843v-34.556h-3.024V304.249L248.731,304.249
		z"/>
	<polygon style="fill:#007A42;" points="204.535,225.581 197.066,218.115 190.512,224.678 183.95,218.115 176.479,225.581 
		183.95,233.046 190.512,226.486 197.066,233.046 204.535,225.581 	"/>
	<path style="fill:#007A42;" d="M284.213,170.002c-0.569-1.329-1.26-2.633-2.072-3.887c-6.769-10.487-19.7-14.599-30.991-10.643
		c-0.662-2.423-1.182-3.833-1.182-3.833s-0.528,1.411-1.188,3.833c-11.285-3.956-24.215,0.156-30.988,10.643
		c-0.809,1.255-1.501,2.559-2.07,3.887c4.76-5.233,11.316-8.199,18.092-8.587c-6.286,4.848-10.343,12.45-10.343,21
		c0,1.499,0.124,2.967,0.366,4.393c1.296-7.731,5.942-14.323,12.384-18.247c-4.07,8.11-3.882,18.113,1.398,26.293
		c0.816,1.257,1.717,2.42,2.694,3.491c-4.402-10.177-1.942-22.084,6.088-29.689c-0.182,1.973-0.294,4.047-0.294,6.186
		c0,12.819,3.86,23.206,3.86,23.206s3.856-10.387,3.856-23.206c0-2.14-0.106-4.214-0.288-6.186
		c8.027,7.605,10.489,19.511,6.084,29.689c0.981-1.071,1.881-2.234,2.693-3.491c5.279-8.18,5.471-18.183,1.396-26.293
		c6.452,3.924,11.098,10.516,12.389,18.247c0.24-1.426,0.363-2.894,0.363-4.393c0-8.55-4.057-16.152-10.343-21
		C272.897,161.804,279.448,164.77,284.213,170.002L284.213,170.002z"/>
	<path style="fill-rule:evenodd;clip-rule:evenodd;fill:#007A42;" d="M223.159,213.579c0,0,19.052-27.488,52.533,8.169
		c31.535,33.579,43.36,27.918,52.329,17.25c0,0-0.482,1.306-1.284,2.565c-0.622,0.976-0.987,1.532-1.115,1.706
		c-4.457,5.985-10.824,9.701-18.659,9.783c-10.041,0.104-22.498-5.918-36.441-21.333
		C239.489,197.426,223.159,213.579,223.159,213.579L223.159,213.579z"/>
	<path style="fill:#F1F0E8;" d="M25,138.474c2.733-6.257,23.669-46.639,113.992-61.217c98.027-15.822,197.807-8.535,275.399-52.252
		H25V138.474L25,138.474z"/>
	<path style="fill:#DEDCCC;" d="M414.391,25.005c0,0-52.8,20.193-130.803,27.063C216.736,57.956,102.063,47.89,25,80.036V25.005
		H414.391L414.391,25.005z"/>
	<path style="fill:#CCC9AB;" d="M414.391,25.005c0,0-80.043,14.364-131.967,14.364c-51.87,0-150.213-9.347-257.424,16.367V25.005
		h277.678L302.714,25h111.703L414.391,25.005L414.391,25.005z"/>
	<path style="fill:#A2CFB6;" d="M147.161,56.79C104.034,59.358,60.523,65.198,25,79.999v58.243
		C27.38,128.47,43.239,89.413,147.161,56.79L147.161,56.79z"/>
	<path style="fill:#61B38F;" d="M222.012,38.001C168.827,36.945,99.032,37.976,25,55.713v24.286
		c35.522-14.801,79.035-20.641,122.162-23.209C168.266,50.162,193.008,43.795,222.012,38.001L222.012,38.001z"/>
	<path style="fill:#007A42;" d="M302.598,25.006L302.642,25H25v30.713c74.032-17.737,143.827-18.768,197.012-17.713
		C245.871,33.235,272.622,28.845,302.598,25.006L302.598,25.006z"/>
	<path style="fill:#F1F0E8;" d="M475,361.526c-2.733,6.257-23.669,46.639-113.992,61.217
		c-98.027,15.822-197.807,8.535-275.399,52.252H475V361.526L475,361.526z"/>
	<path style="fill:#DEDCCC;" d="M85.609,474.995c0,0,52.8-20.193,130.803-27.063c66.853-5.888,181.525,4.178,258.588-27.968v55.031
		H85.609L85.609,474.995z"/>
	<path style="fill:#CCC9AB;" d="M85.609,474.995c0,0,80.043-14.364,131.967-14.364c51.87,0,150.213,9.347,257.424-16.367v30.731
		H197.322L197.286,475H85.582L85.609,474.995L85.609,474.995z"/>
	<path style="fill:#A2CFB6;" d="M352.839,443.21c43.127-2.568,86.639-8.409,122.161-23.209v-58.243
		C472.62,371.53,456.761,410.587,352.839,443.21L352.839,443.21z"/>
	<path style="fill:#61B38F;" d="M277.988,461.999c53.185,1.056,122.98,0.024,197.012-17.713v-24.286
		c-35.523,14.801-79.035,20.641-122.162,23.209C331.734,449.838,306.992,456.205,277.988,461.999L277.988,461.999z"/>
	<path style="fill:#007A42;" d="M197.402,474.994L197.358,475H475v-30.713c-74.032,17.737-143.827,18.768-197.012,17.712
		C254.129,466.765,227.378,471.155,197.402,474.994L197.402,474.994z"/>
</g>
</svg>
