<?xml version="1.0" encoding="UTF-8"?>
<svg id="Layer_1" data-name="Layer 1" xmlns="http://www.w3.org/2000/svg" viewBox="0 0 960 960">
  <defs>
    <style>
      .cls-1 {
        fill: #4f008c;
        stroke-width: 0px;
      }
    </style>
  </defs>
  <path id="path885" class="cls-1" d="M380.72,269.22v88.66h86.69v-88.66h-86.69ZM467.41,357.88v84.07h86.69v-84.07h-86.69ZM467.41,441.95h-86.69v149.09c0,30.21,9.2,54.52,25.61,71.59,18.39,18.39,45.32,28.24,78.82,28.24s58.45-10.51,68.96-19.7v-70.93c-7.88,5.91-23.64,13.13-44,13.13-14.45,0-24.96-3.28-32.84-10.51-6.57-6.57-9.85-17.73-9.85-32.84v-128.07ZM193.53,348.03c-40.06,0-73.56,13.13-96.54,34.15-19.7,18.39-30.87,43.35-30.87,70.94,0,24.3,7.88,44.66,23.65,60.42,15.76,15.76,38.75,27.58,68.96,34.81l49.92,11.83c24.96,5.91,36.13,15.1,36.13,31.52,0,20.36-18.39,32.18-48.6,32.18-21.68,0-39.41-7.22-50.57-19.05-7.88-7.88-12.48-18.38-13.13-30.21l-74.87,16.42c1.97,22.33,12.48,42.04,28.24,57.79,24.96,26.28,65.02,42.04,110.34,42.04s80.13-13.79,103.77-36.78c17.74-17.74,28.25-41.38,28.25-68.96,0-24.96-9.2-47.29-26.28-64.37-17.07-17.08-41.38-29.56-72.24-35.46l-50.57-9.86c-21.01-3.94-32.84-14.45-32.84-28.9,0-19.04,18.38-32.18,47.94-32.18,18.38,0,34.15,5.91,44.66,16.41,6.57,7.22,11.16,16.42,12.48,26.93l72.9-16.42c-1.97-21.02-11.83-39.4-26.93-54.51-23.65-23.65-60.42-38.75-103.77-38.75ZM747.85,348.03c-46.62,0-88.66,17.73-118.88,47.94-30.21,30.87-48.6,73.55-48.6,123.47s19.05,92.61,49.92,123.48c30.2,30.21,72.9,47.94,120.19,47.94s86.04-17.73,111.65-42.69c20.36-19.7,32.84-42.69,39.41-66.34l-76.84-25.61c-3.28,11.82-9.85,24.3-20.36,34.15-12.48,11.83-29.55,20.36-53.85,20.36-22.33,0-43.35-8.54-58.45-23.65-15.11-15.76-24.3-38.75-24.3-67.65s9.19-51.89,24.3-67.64c15.1-15.11,35.47-22.99,57.79-22.99,23.65,0,40.07,7.88,51.89,19.7,9.86,9.86,15.76,22.33,19.7,34.81l78.15-26.28c-5.91-22.99-18.39-45.97-36.78-65.02-26.27-25.61-64.37-44-114.94-44Z"/>
</svg>